<svg width="27" height="28" viewBox="0 0 27 28" fill="none" xmlns="http://www.w3.org/2000/svg">
<path d="M25.6265 6.26877L14.6265 0.250022C14.3326 0.0876253 14.0023 0.00244141 13.6665 0.00244141C13.3307 0.00244141 13.0004 0.0876253 12.7065 0.250022L1.7065 6.27127C1.39236 6.44315 1.13013 6.69622 0.947194 7.00405C0.764254 7.31189 0.667317 7.66319 0.666504 8.02127V19.9763C0.667317 20.3344 0.764254 20.6857 0.947194 20.9935C1.13013 21.3013 1.39236 21.5544 1.7065 21.7263L12.7065 27.7475C13.0004 27.9099 13.3307 27.9951 13.6665 27.9951C14.0023 27.9951 14.3326 27.9099 14.6265 27.7475L25.6265 21.7263C25.9406 21.5544 26.2029 21.3013 26.3858 20.9935C26.5688 20.6857 26.6657 20.3344 26.6665 19.9763V8.02252C26.6664 7.6638 26.5697 7.31172 26.3868 7.00317C26.2038 6.69462 25.9412 6.44096 25.6265 6.26877ZM13.6665 2.00002L23.709 7.50002L19.9878 9.53752L9.944 4.03752L13.6665 2.00002ZM13.6665 13L3.624 7.50002L7.8615 5.18002L17.904 10.68L13.6665 13ZM2.6665 9.25002L12.6665 14.7225V25.4463L2.6665 19.9775V9.25002ZM24.6665 19.9725L14.6665 25.4463V14.7275L18.6665 12.5388V17C18.6665 17.2652 18.7719 17.5196 18.9594 17.7071C19.1469 17.8947 19.4013 18 19.6665 18C19.9317 18 20.1861 17.8947 20.3736 17.7071C20.5611 17.5196 20.6665 17.2652 20.6665 17V11.4438L24.6665 9.25002V19.9713V19.9725Z" fill="#2B3990"/>
</svg>
