<svg width="25" height="24" viewBox="0 0 25 24" fill="none" xmlns="http://www.w3.org/2000/svg">
<path d="M20.041 4.29247C20.134 4.38534 20.2077 4.49563 20.258 4.61703C20.3084 4.73843 20.3343 4.86855 20.3343 4.99997C20.3343 5.13139 20.3084 5.26151 20.258 5.38291C20.2077 5.50431 20.134 5.6146 20.041 5.70747L18.041 7.70747C17.8533 7.89511 17.5988 8.00053 17.3335 8.00053C17.0681 8.00053 16.8136 7.89511 16.626 7.70747C16.4383 7.51983 16.3329 7.26533 16.3329 6.99997C16.3329 6.73461 16.4383 6.48011 16.626 6.29247L18.626 4.29247C18.7188 4.19949 18.8291 4.12573 18.9505 4.07541C19.0719 4.02509 19.2021 3.99918 19.3335 3.99918C19.4649 3.99918 19.595 4.02509 19.7164 4.07541C19.8378 4.12573 19.9481 4.19949 20.041 4.29247ZM24.3335 4.99997C24.3353 5.65682 24.2068 6.30751 23.9553 6.91431C23.7038 7.52112 23.3344 8.07198 22.8685 8.53497L19.8685 11.535C19.7224 11.6812 19.5346 11.7786 19.331 11.8137C12.8947 12.9187 2.14847 23.5987 2.04097 23.7075C1.85333 23.8949 1.5989 24.0002 1.33366 24.0001C1.06841 24 0.814074 23.8945 0.626599 23.7068C0.439124 23.5192 0.333867 23.2648 0.333984 22.9995C0.334102 22.7343 0.439583 22.4799 0.627224 22.2925C0.833474 22.0912 11.4197 11.41 12.5197 4.99997C12.5549 4.7963 12.6522 4.60853 12.7985 4.46247L15.7985 1.46247C16.4979 0.763272 17.3889 0.287189 18.3589 0.0944308C19.3289 -0.0983273 20.3343 0.000898331 21.2479 0.379558C22.1615 0.758218 22.9423 1.3993 23.4915 2.22174C24.0408 3.04417 24.3338 4.01101 24.3335 4.99997ZM22.3335 4.99997C22.3349 4.40556 22.1598 3.8241 21.8302 3.3294C21.5007 2.8347 21.0316 2.44904 20.4825 2.22137C19.9334 1.9937 19.3291 1.93428 18.7462 2.05064C18.1633 2.16701 17.6281 2.45392 17.2085 2.87497L14.4297 5.66122C13.8785 8.30497 12.0672 11.435 9.99347 14.34C12.8985 12.2662 16.0285 10.455 18.6722 9.90372L21.4585 7.12497C21.7377 6.84627 21.9588 6.51494 22.109 6.15017C22.2592 5.7854 22.3355 5.39445 22.3335 4.99997Z" fill="#2B3990"/>
</svg>
