<svg width="17" height="17" viewBox="0 0 17 17" fill="none" xmlns="http://www.w3.org/2000/svg">
<path d="M9.59454 2.04943C9.65882 1.80932 9.81582 1.60456 10.031 1.48018C10.2463 1.3558 10.5021 1.32198 10.7422 1.38615C11.9542 1.7019 13.0601 2.33526 13.9457 3.2209C14.8314 4.10654 15.4647 5.2124 15.7805 6.42443C15.8152 6.54425 15.8257 6.6698 15.8113 6.79371C15.7968 6.91763 15.7578 7.03742 15.6965 7.14607C15.6352 7.25472 15.5529 7.35004 15.4543 7.42646C15.3557 7.50287 15.2428 7.55883 15.1223 7.59106C15.0018 7.6233 14.876 7.63115 14.7524 7.61418C14.6288 7.5972 14.5099 7.55572 14.4025 7.49218C14.2952 7.42864 14.2016 7.34432 14.1272 7.24414C14.0529 7.14397 13.9993 7.02997 13.9695 6.90881C13.7367 6.01601 13.27 5.20143 12.6176 4.54901C11.9652 3.89658 11.1506 3.42992 10.2578 3.19709C10.0177 3.13281 9.81294 2.9758 9.68856 2.76059C9.56418 2.54538 9.53036 2.28958 9.59454 2.04943ZM16.4258 12.8838C16.2768 14.0179 15.7201 15.059 14.8597 15.8126C13.9992 16.5662 12.8938 16.9809 11.75 16.9791C5.37423 16.9791 0.187506 11.7924 0.187506 5.41662C0.185733 4.27279 0.600386 3.16743 1.35402 2.30698C2.10765 1.44652 3.14873 0.88982 4.28282 0.740841C4.61697 0.700236 4.95532 0.768354 5.24773 0.935103C5.54013 1.10185 5.77105 1.35836 5.90626 1.66662L7.55547 5.34865C7.55723 5.35348 7.55932 5.35818 7.56172 5.36272C7.66308 5.59961 7.70428 5.85789 7.68165 6.11455C7.65902 6.37122 7.57327 6.61831 7.43204 6.83381C7.41194 6.86521 7.38975 6.89522 7.36563 6.92365L5.87657 8.69787C6.42813 9.701 7.47813 10.7416 8.49297 11.2924L10.2359 9.80803C10.2639 9.78461 10.2931 9.7627 10.3234 9.7424C10.5397 9.59729 10.7889 9.5088 11.0483 9.48505C11.3076 9.4613 11.5688 9.50305 11.8078 9.60647L11.8219 9.61272L15.5 11.2604C15.8082 11.3957 16.0646 11.6266 16.2314 11.919C16.3981 12.2114 16.4663 12.5497 16.4258 12.8838ZM14.5266 12.8791L11.2453 11.4096L9.49298 12.8994C9.46543 12.9233 9.43647 12.9455 9.40626 12.9658C9.181 13.1152 8.92086 13.2036 8.65124 13.2223C8.38162 13.2411 8.11174 13.1896 7.86797 13.0729C6.3461 12.3385 4.82969 10.8322 4.09376 9.32287C3.97672 9.0802 3.92443 8.81138 3.94195 8.54253C3.95947 8.27368 4.04622 8.01393 4.19376 7.7885C4.21412 7.75709 4.23657 7.72707 4.26094 7.69865L5.75782 5.92365L4.28751 2.6424C3.65579 2.78162 3.09068 3.13266 2.68596 3.63729C2.28124 4.14191 2.06125 4.76975 2.06251 5.41662C2.06561 7.98496 3.08725 10.4472 4.90333 12.2633C6.71942 14.0794 9.18167 15.101 11.75 15.1041C12.3973 15.1059 13.0257 14.8862 13.5308 14.4814C14.0359 14.0766 14.3873 13.5112 14.5266 12.8791ZM9.37735 6.15647C9.76074 6.27731 10.1093 6.48882 10.3936 6.77306C10.6778 7.0573 10.8893 7.40589 11.0102 7.78928C11.07 7.97949 11.1889 8.14568 11.3496 8.2637C11.5103 8.38171 11.7045 8.44541 11.9039 8.44553C11.9995 8.44541 12.0946 8.43093 12.1859 8.40256C12.4222 8.32781 12.6192 8.16259 12.734 7.943C12.8488 7.72341 12.8719 7.46731 12.7984 7.23068C12.587 6.55941 12.2168 5.94906 11.7191 5.45141C11.2215 4.95376 10.6111 4.58352 9.93985 4.37209C9.82171 4.33245 9.69685 4.31676 9.57258 4.32593C9.4483 4.33511 9.3271 4.36897 9.21607 4.42553C9.10503 4.48209 9.00639 4.56023 8.9259 4.65536C8.84541 4.75049 8.7847 4.86072 8.74731 4.97959C8.70992 5.09846 8.6966 5.22359 8.70813 5.34767C8.71967 5.47175 8.75583 5.59228 8.81449 5.70222C8.87315 5.81216 8.95314 5.90931 9.04979 5.98797C9.14643 6.06664 9.25779 6.12525 9.37735 6.16037V6.15647Z" fill="white"/>
</svg>
