<svg width="12" height="8" viewBox="0 0 12 8" fill="none" xmlns="http://www.w3.org/2000/svg">
<path d="M5.4694 7.0306L0.469401 2.0306C0.328505 1.8897 0.24935 1.6986 0.24935 1.49935C0.24935 1.30009 0.328505 1.10899 0.469401 0.968097C0.610297 0.827201 0.801394 0.748046 1.00065 0.748046C1.19991 0.748046 1.391 0.827201 1.5319 0.968097L6.00003 5.43747L10.4694 0.969348C10.5392 0.899583 10.622 0.844243 10.7131 0.806486C10.8043 0.76873 10.902 0.749297 11.0007 0.749297C11.0993 0.749297 11.197 0.76873 11.2882 0.806486C11.3793 0.844243 11.4621 0.899583 11.5319 0.969348C11.6017 1.03911 11.657 1.12194 11.6948 1.21309C11.7325 1.30424 11.752 1.40194 11.752 1.5006C11.752 1.59926 11.7325 1.69696 11.6948 1.78811C11.657 1.87926 11.6017 1.96208 11.5319 2.03185L6.5319 7.03185C6.46214 7.10169 6.37928 7.15707 6.28807 7.19481C6.19686 7.23256 6.0991 7.25193 6.00039 7.25181C5.90168 7.2517 5.80396 7.2321 5.71285 7.19414C5.62173 7.15618 5.539 7.1006 5.4694 7.0306Z" fill="#262A2E"/>
</svg>
