<svg width="13" height="14" viewBox="0 0 13 14" fill="none" xmlns="http://www.w3.org/2000/svg">
<path d="M12.75 8.5V12C12.75 12.3315 12.6183 12.6495 12.3839 12.8839C12.1495 13.1183 11.8315 13.25 11.5 13.25H1.5C1.16848 13.25 0.850537 13.1183 0.616117 12.8839C0.381696 12.6495 0.25 12.3315 0.25 12V8.5C0.25 8.30109 0.329018 8.11032 0.46967 7.96967C0.610322 7.82902 0.801088 7.75 1 7.75C1.19891 7.75 1.38968 7.82902 1.53033 7.96967C1.67098 8.11032 1.75 8.30109 1.75 8.5V11.75H11.25V8.5C11.25 8.30109 11.329 8.11032 11.4697 7.96967C11.6103 7.82902 11.8011 7.75 12 7.75C12.1989 7.75 12.3897 7.82902 12.5303 7.96967C12.671 8.11032 12.75 8.30109 12.75 8.5ZM5.96938 9.03063C6.03905 9.10054 6.12185 9.15602 6.21301 9.19388C6.30417 9.23173 6.40191 9.25122 6.50062 9.25122C6.59934 9.25122 6.69707 9.23173 6.78824 9.19388C6.8794 9.15602 6.9622 9.10054 7.03187 9.03063L9.53187 6.53062C9.67277 6.38973 9.75193 6.19863 9.75193 5.99937C9.75193 5.80012 9.67277 5.60902 9.53187 5.46812C9.39098 5.32723 9.19988 5.24807 9.00062 5.24807C8.80137 5.24807 8.61027 5.32723 8.46937 5.46812L7.25 6.6875V1.5C7.25 1.30109 7.17098 1.11032 7.03033 0.96967C6.88968 0.829018 6.69891 0.75 6.5 0.75C6.30109 0.75 6.11032 0.829018 5.96967 0.96967C5.82902 1.11032 5.75 1.30109 5.75 1.5V6.6875L4.53062 5.46938C4.38973 5.32848 4.19863 5.24932 3.99937 5.24932C3.80012 5.24932 3.60902 5.32848 3.46812 5.46938C3.32723 5.61027 3.24807 5.80137 3.24807 6.00063C3.24807 6.19988 3.32723 6.39098 3.46812 6.53188L5.96938 9.03063Z" fill="white"/>
</svg>
