<svg width="6" height="10" viewBox="0 0 6 10" fill="none" xmlns="http://www.w3.org/2000/svg">
<path d="M5.64795 5.39795L1.89795 9.14795C1.79228 9.25362 1.64895 9.31299 1.49951 9.31299C1.35007 9.31299 1.20675 9.25362 1.10107 9.14795C0.995401 9.04228 0.936035 8.89895 0.936035 8.74951C0.936035 8.60007 0.995401 8.45675 1.10107 8.35107L4.4531 4.99998L1.10201 1.64795C1.04969 1.59562 1.00818 1.53351 0.979865 1.46514C0.951547 1.39678 0.936972 1.32351 0.936972 1.24951C0.936972 1.17551 0.951547 1.10224 0.979865 1.03388C1.00818 0.965514 1.04969 0.903397 1.10201 0.851073C1.15433 0.79875 1.21645 0.757245 1.28482 0.728927C1.35318 0.70061 1.42645 0.686035 1.50045 0.686035C1.57445 0.686035 1.64772 0.70061 1.71608 0.728927C1.78445 0.757245 1.84656 0.79875 1.89889 0.851073L5.64889 4.60107C5.70126 4.65339 5.7428 4.71554 5.77111 4.78394C5.79942 4.85235 5.81395 4.92567 5.81386 4.99971C5.81377 5.07374 5.79907 5.14703 5.7706 5.21537C5.74213 5.2837 5.70045 5.34575 5.64795 5.39795Z" fill="#4D545C"/>
</svg>
